<?xml version="1.0" encoding="UTF-8" standalone="no"?>
<!-- Created with Inkscape (http://www.inkscape.org/) -->

<svg
   width="54.907135mm"
   height="64.815132mm"
   viewBox="0 0 54.907135 64.815132"
   version="1.1"
   id="svg1"
   inkscape:version="1.3.2 (1:1.3.2+202311252150+091e20ef0f)"
   sodipodi:docname="Logo.svg"
   xmlns:inkscape="http://www.inkscape.org/namespaces/inkscape"
   xmlns:sodipodi="http://sodipodi.sourceforge.net/DTD/sodipodi-0.dtd"
   xmlns="http://www.w3.org/2000/svg"
   xmlns:svg="http://www.w3.org/2000/svg">
  <sodipodi:namedview
     id="namedview1"
     pagecolor="#ffffff"
     bordercolor="#666666"
     borderopacity="1.0"
     inkscape:showpageshadow="2"
     inkscape:pageopacity="0.0"
     inkscape:pagecheckerboard="0"
     inkscape:deskcolor="#d1d1d1"
     inkscape:document-units="mm"
     inkscape:zoom="1.8565376"
     inkscape:cx="163.20704"
     inkscape:cy="129.54222"
     inkscape:window-width="1366"
     inkscape:window-height="731"
     inkscape:window-x="0"
     inkscape:window-y="0"
     inkscape:window-maximized="1"
     inkscape:current-layer="layer1" />
  <defs
     id="defs1" />
  <g
     inkscape:label="Layer 1"
     inkscape:groupmode="layer"
     id="layer1"
     transform="translate(-36.63466,-91.018208)">
    <path
       d="m 63.252987,110.02739 a 13.705113,13.705113 0 0 0 -13.705107,13.70511 13.705113,13.705113 0 0 0 0.02067,0.20877 13.705113,13.705113 0 0 1 7.980908,2.7249 13.705113,13.705113 0 0 1 13.571781,-12.35118 13.705113,13.705113 0 0 1 2.261361,0.19533 13.705113,13.705113 0 0 0 -10.129614,-4.48293 z"
       style="fill:#0062ff;stroke:#fff4ff;stroke-width:0.40786226;stroke-linecap:round;stroke-miterlimit:3.1;stroke-opacity:1;stroke-dasharray:none"
       id="path6" />
    <path
       d="m 73.437855,123.23275 a 13.705113,13.705113 0 0 0 -13.705107,13.70511 13.705113,13.705113 0 0 0 0.02067,0.20877 13.705113,13.705113 0 0 1 7.980908,2.7249 13.705113,13.705113 0 0 1 13.571781,-12.35118 13.705113,13.705113 0 0 1 2.261361,0.19533 13.705113,13.705113 0 0 0 -10.129613,-4.48293 z"
       style="fill:#0062ff;stroke:#fff4ff;stroke-width:0.40786226;stroke-linecap:round;stroke-miterlimit:3.1;stroke-opacity:1;stroke-dasharray:none"
       id="path6-0" />
    <path
       d="m 42.638561,137.68639 a 13.705113,13.705113 0 0 0 19.08635,-3.37215 13.705113,13.705113 0 0 0 0.102751,-0.18289 13.705113,13.705113 0 0 1 -4.976957,-6.80808 13.705113,13.705113 0 0 1 -18.200905,2.33924 13.705113,13.705113 0 0 1 -1.740856,-1.45647 13.705113,13.705113 0 0 0 5.72962,9.48035 z"
       style="fill:#0062ff;stroke:#fff4ff;stroke-width:0.40786226;stroke-linecap:round;stroke-miterlimit:3.1;stroke-opacity:1;stroke-dasharray:none"
       id="path6-8" />
    <path
       d="m 57.549459,126.66617 a 13.705113,13.705113 0 0 0 -0.133325,1.35392 13.705113,13.705113 0 0 0 0.02067,0.20878 13.705113,13.705113 0 0 1 2.039152,0.1881 13.705113,13.705113 0 0 0 -1.926497,-1.7508 z"
       style="fill:#0062ff;stroke:#fff4ff;stroke-width:0.40786226;stroke-linecap:round;stroke-miterlimit:3.1;stroke-opacity:1;stroke-dasharray:none"
       id="path10" />
    <path
       d="m 51.017041,129.77399 a 13.705113,13.705113 0 0 1 6.197555,-1.55236 13.705113,13.705113 0 0 1 0.222208,0.007 13.705113,13.705113 0 0 1 -0.02067,-0.20878 13.705113,13.705113 0 0 1 0.133325,-1.35392 13.705113,13.705113 0 0 0 -7.980908,-2.7249 13.705113,13.705113 0 0 0 1.44849,5.83272 z"
       style="fill:#0062ff;stroke:#fff4ff;stroke-width:0.40786226;stroke-linecap:round;stroke-miterlimit:3.1;stroke-opacity:1;stroke-dasharray:none"
       id="path8" />
    <path
       d="m 47.119604,151.12514 a 13.705113,13.705113 0 0 0 10.094992,4.5067 13.705113,13.705113 0 0 0 13.705106,-13.7051 13.705113,13.705113 0 0 0 -0.0072,-0.22221 13.705113,13.705113 0 0 1 -7.988659,-2.76779 13.705113,13.705113 0 0 1 -13.577466,12.40751 13.705113,13.705113 0 0 1 -2.226738,-0.21911 z"
       style="fill:#0062ff;stroke:#fff4ff;stroke-width:0.40786226;stroke-linecap:round;stroke-miterlimit:3.1;stroke-opacity:1;stroke-dasharray:none"
       id="path14" />
    <path
       d="m 63.044214,137.41694 a 13.705113,13.705113 0 0 1 -2.017965,-0.19844 13.705113,13.705113 0 0 0 1.897559,1.71824 13.705113,13.705113 0 0 0 0.127641,-1.2976 13.705113,13.705113 0 0 0 -0.0072,-0.2222 z"
       style="fill:#0062ff;stroke:#fff4ff;stroke-width:0.40786226;stroke-linecap:round;stroke-miterlimit:3.1;stroke-opacity:1;stroke-dasharray:none"
       id="path13" />
    <path
       d="m 69.502218,135.85734 a 13.705113,13.705113 0 0 1 -6.249231,1.58027 13.705113,13.705113 0 0 1 -0.208773,-0.0207 13.705113,13.705113 0 0 1 0.0072,0.2222 13.705113,13.705113 0 0 1 -0.127641,1.2976 13.705113,13.705113 0 0 0 7.988659,2.76779 13.705113,13.705113 0 0 0 -1.410249,-5.84719 z"
       style="fill:#0062ff;stroke:#fff4ff;stroke-width:0.40786226;stroke-linecap:round;stroke-miterlimit:3.1;stroke-opacity:1;stroke-dasharray:none"
       id="path12" />
    <path
       d="m 69.502218,135.85734 a 13.705113,13.705113 0 0 0 -10.026262,-7.44037 13.705113,13.705113 0 0 1 3.568258,8.99997 13.705113,13.705113 0 0 0 0.208773,0.0207 13.705113,13.705113 0 0 0 6.249231,-1.58027 z"
       style="fill:#0062ff;stroke:#fff4ff;stroke-width:0.40786226;stroke-linecap:round;stroke-miterlimit:3.1;stroke-opacity:1;stroke-dasharray:none"
       id="path11" />
    <path
       d="m 63.044214,137.41694 a 13.705113,13.705113 0 0 0 -3.568258,-8.99997 13.705113,13.705113 0 0 0 -2.039152,-0.1881 13.705113,13.705113 0 0 0 3.589445,8.98963 13.705113,13.705113 0 0 0 2.017965,0.19844 z"
       style="fill:#0062ff;stroke:#fff4ff;stroke-width:0.40786226;stroke-linecap:round;stroke-miterlimit:3.1;stroke-opacity:1;stroke-dasharray:none"
       id="path9" />
    <path
       d="m 61.026249,137.2185 a 13.705113,13.705113 0 0 1 -3.589445,-8.98963 13.705113,13.705113 0 0 0 -0.222208,-0.007 13.705113,13.705113 0 0 0 -6.197555,1.55236 13.705113,13.705113 0 0 0 10.009208,7.44451 z"
       style="fill:#0062ff;stroke:#fff4ff;stroke-width:0.40786226;stroke-linecap:round;stroke-miterlimit:3.1;stroke-opacity:1;stroke-dasharray:none"
       id="path7" />
    <path
       d="m 84.930345,111.96078 a 17.134949,18.060644 0 0 1 -2.365746,6.84248 11.563004,23.003725 0 0 1 2.613796,14.55466 11.563004,23.003725 0 0 1 -7.726663,21.6607 11.563004,23.003725 0 0 0 2.32544,0.5302 11.563004,23.003725 0 0 0 11.563123,-23.00377 11.563004,23.003725 0 0 0 -6.40995,-20.58427 z"
       style="fill:#0062ff;stroke:#fff4ff;stroke-width:0.40786226;stroke-linecap:round;stroke-miterlimit:3.1;stroke-opacity:1;stroke-dasharray:none"
       id="path19" />
    <path
       d="m 84.930345,111.96078 a 11.563004,23.003725 0 0 0 -4.683951,-2.39417 17.134949,18.060644 0 0 1 0.47904,4.23127 17.134949,18.060644 0 0 1 -0.104386,1.25987 11.563004,23.003725 0 0 1 1.943551,3.74551 17.134949,18.060644 0 0 0 2.365746,-6.84248 z"
       style="fill:#0062ff;stroke:#fff4ff;stroke-width:0.52859451;stroke-linecap:round;stroke-miterlimit:3.1;stroke-opacity:1;stroke-dasharray:none"
       id="path18" />
    <path
       d="m 68.013032,91.279354 a 17.134949,18.060644 0 0 0 -13.81311,7.484814 17.134949,18.060644 0 0 1 9.390641,-3.027205 17.134949,18.060644 0 0 1 16.655831,13.829647 11.563004,23.003725 0 0 1 4.683951,2.39417 17.134949,18.060644 0 0 0 0.21756,-2.62103 17.134949,18.060644 0 0 0 -17.134873,-18.060396 z"
       style="fill:#0062ff;stroke:#fff4ff;stroke-width:0.529;stroke-linecap:round;stroke-miterlimit:3.1;stroke-opacity:1;stroke-dasharray:none"
       id="path17" />
  </g>
</svg>
